<?xml version="1.0" encoding="UTF-8"?>
<svg id="Capa_2" data-name="Capa 2" xmlns="http://www.w3.org/2000/svg" viewBox="0 0 113.94 80.06">
  <defs>
    <style>
      .cls-1 {
        stroke: #1d1d1b;
      }

      .cls-1, .cls-2, .cls-3, .cls-4, .cls-5, .cls-6 {
        fill: #fff;
        stroke-miterlimit: 10;
      }

      .cls-2 {
        stroke: #71b62c;
      }

      .cls-3 {
        stroke: #7c539d;
      }

      .cls-4 {
        stroke: #faea39;
      }

      .cls-5 {
        stroke: #e73642;
      }

      .cls-6 {
        stroke: #e86610;
      }
    </style>
  </defs>
  <g id="Capa_1-2" data-name="Capa 1">
    <g>
      <ellipse class="cls-6" cx="56.97" cy="40.03" rx="56.47" ry="39.53"/>
      <polygon class="cls-2" points="80.25 7.78 74.48 23.32 86.01 23.32 80.25 7.78"/>
      <polygon class="cls-2" points="80.25 58.09 86.01 42.55 74.48 42.55 80.25 58.09"/>
      <ellipse class="cls-3" cx="34.67" cy="32.67" rx="13.05" ry="15.51"/>
      <ellipse class="cls-1" cx="34.67" cy="32.67" rx="5.65" ry="2.96"/>
      <ellipse class="cls-1" cx="79.08" cy="32.67" rx="5.65" ry="2.96"/>
      <ellipse class="cls-5" cx="56.97" cy="50.32" rx="5.65" ry="7.48"/>
      <path class="cls-4" d="M40.32,68.03c2.57,1.03,6.44,2.29,11.27,2.77,4.69.47,8.03-.01,13.39-.79,5.09-.74,10.98-1.64,17.83-4.86,1.95-.92,3.51-1.8,4.55-2.43"/>
    </g>
  </g>
</svg>